#!OML:ASF X:\für Bonn\!DataBase\2005_08_12_Daniel\c3d\Daniel.ASF
:FULLY-SPECIFIED
:DEGREES
1
root 1.06317 17.0118 0.243142 849.328 -93.3198 -859.707
lowerback 11.5095 -3.69334 -2.13641
upperback 5.04802 -5.42712 -3.32837
thorax -1.28962 -2.80735 -1.57722
lowerneck 8.85073 3.98109 -0.523035
upperneck 18.5994 4.37013 -0.317687
head 4.65717 1.6914 0.00343583
rclavicle -4.42296e-015 1.59028e-015
rhumerus -201.602 188.578 124.11
rradius 8.52426
rwrist 334.221
rhand -31.8056 -6.08618
rfingers 7.12502
rthumb -5.061 -36.0057
lclavicle -4.42296e-015 1.59028e-015
lhumerus -31.3274 55.9341 35.9491
lradius 8.74818
lwrist 11.5221
lhand -25.6507 21.9154
lfingers 7.12502
lthumb 0.883128 51.8933
rfemur 12.8797 16.0492 13.4936
rtibia 18.1292
rfoot -29.7316 -23.1175
rtoes -12.1948
lfemur 1.75136 -18.2684 -19.6337
ltibia 32.7317
lfoot -28.3601 6.20244
ltoes 0.0984091
2
root 1.09709 17.0071 0.247155 848.518 -93.2326 -859.169
lowerback 12.0071 -3.61998 -2.0901
upperback 5.18927 -5.34962 -3.29318
thorax -1.41134 -2.7725 -1.54748
lowerneck 7.43267 3.88626 -0.61818
upperneck 18.8589 4.30939 -0.285301
head 5.01639 1.66997 0.0597486
rclavicle -1.20265e-014 8.74653e-015
rhumerus -200.302 184.416 119.139
rradius 8.22484
rwrist 331.535
rhand -31.5938 -6.85249
rfingers 7.12502
rthumb -4.8565 -36.7768
lclavicle -1.20265e-014 8.74653e-015
lhumerus -24.8236 49.5547 46.3044
lradius 8.18701
lwrist 15.6051
lhand -25.689 22.4878
lfingers 7.12502
lthumb 0.846075 52.4659
rfemur 12.863 15.7394 13.3925
rtibia 18.3139
rfoot -29.3913 -22.7843
rtoes -12.2669
lfemur 1.90327 -18.1468 -19.6429
ltibia 32.7818
lfoot -28.3165 6.17461
ltoes 0.121929
3
root 1.13223 17.0018 0.251812 847.826 -93.1317 -858.733
lowerback 12.5243 -3.55274 -2.00264
upperback 5.2928 -5.27556 -3.25619
thorax -1.58576 -2.73772 -1.53609
lowerneck 5.59149 3.79166 -0.647348
upperneck 19.9366 4.25979 -0.260546
head 5.08999 1.64858 0.106204
rclavicle 1.16289e-014 -1.59028e-014
rhumerus -198.814 179.955 114.533
rradius 7.79674
rwrist 328.881
rhand -31.1254 -7.06258
rfingers 7.12502
rthumb -4.40423 -36.9968
lclavicle 1.16289e-014 -1.59028e-014
lhumerus -20.2455 42.616 54.5322
lradius 8.2925
lwrist 20.0324
lhand -25.2877 22.8938
lfingers 7.12502
lthumb 1.23366 52.87
rfemur 12.8261 15.4136 13.2924
rtibia 18.4866
rfoot -29.0355 -22.4187
rtoes -12.3148
lfemur 2.01444 -18.0016 -19.6193
ltibia 32.8464
lfoot -28.2611 6.15278
ltoes 0.111045
4
root 1.16833 16.9988 0.257326 846.453 -92.9918 -857.581
lowerback 13.0036 -3.46159 -1.88148
upperback 5.39008 -5.16421 -3.23569
thorax -1.74916 -2.68399 -1.56925
lowerneck 4.21101 3.68645 -0.654177
upperneck 20.3568 4.1791 -0.248712
head 5.44626 1.61593 0.137276
rclavicle -7.7526e-015 -2.14687e-014
rhumerus -197.258 175.296 110.268
rradius 7.61428
rwrist 326.191
rhand -30.5961 -6.84694
rfingers 7.12502
rthumb -3.89308 -36.7911
lclavicle -7.7526e-015 -2.14687e-014
lhumerus -16.9523 35.2549 61.2151
lradius 9.23788
lwrist 24.8217
lhand -24.5337 23.4079
lfingers 7.12502
lthumb 1.96189 53.3786
rfemur 12.7368 15.101 13.1738
rtibia 18.6507
rfoot -28.6281 -22.0544
rtoes -12.311
lfemur 2.10599 -17.8675 -19.6002
ltibia 32.9215
lfoot -28.238 6.19675
ltoes 0.036009
5
root 1.20533 16.9979 0.263909 844.243 -92.8252 -855.548
lowerback 13.4644 -3.36669 -1.76036
upperback 5.45548 -5.04521 -3.20488
thorax -1.93384 -2.62567 -1.59431
lowerneck 2.936 3.59926 -0.663143
upperneck 20.8441 4.11536 -0.26643
head 5.81155 1.58457 0.157637
rclavicle -6.16232e-015 -1.19271e-014
rhumerus -195.697 170.384 106.349
rradius 7.89387
rwrist 323.427
rhand -30.1693 -6.52011
rfingers 7.12502
rthumb -3.48097 -36.4714
lclavicle -6.16232e-015 -1.19271e-014
lhumerus -14.2843 27.644 66.9397
lradius 10.4549
lwrist 29.9212
lhand -23.8575 23.7065
lfingers 7.12502
lthumb 2.61493 53.6702
rfemur 12.577 14.8027 13.0247
rtibia 18.8002
rfoot -28.1644 -21.6926
rtoes -12.4173
lfemur 2.1418 -17.6836 -19.5647
ltibia 33.0063
lfoot -28.2054 6.23558
ltoes -0.0694856
6
root 1.24489 16.9973 0.27235 841.173 -92.6278 -852.651
lowerback 13.9496 -3.25917 -1.58738
upperback 5.50435 -4.90316 -3.18557
thorax -2.15272 -2.55507 -1.66324
lowerneck 1.62626 3.50696 -0.623679
upperneck 21.452 4.0382 -0.290454
head 6.22712 1.54525 0.167834
rclavicle 6.95746e-016 3.10104e-014
rhumerus -194.258 165.317 102.787
rradius 8.92376
rwrist 320.536
rhand -30.0185 -6.2747
rfingers 7.12502
rthumb -3.33532 -36.2284
lclavicle 6.95746e-016 3.10104e-014
lhumerus -11.9097 20.7783 71.7351
lradius 11.5562
lwrist 34.2746
lhand -23.2095 23.5273
lfingers 7.12502
lthumb 3.24079 53.4824
rfemur 12.3951 14.5256 12.8764
rtibia 18.9423
rfoot -27.6768 -21.3149
rtoes -12.4388
lfemur 2.16864 -17.4885 -19.5235
ltibia 33.0948
lfoot -28.1869 6.31383
ltoes -0.136587
7
root 1.28536 16.998 0.281434 837.218 -92.4242 -848.84
lowerback 14.4191 -3.14953 -1.38621
upperback 5.53014 -4.75205 -3.17231
thorax -2.38857 -2.47935 -1.75803
lowerneck 0.362205 3.42566 -0.630952
upperneck 22.0607 3.96529 -0.265512
head 6.63853 1.50674 0.199859
rclavicle -5.71009e-014 -2.94201e-014
rhumerus -192.93 160.115 99.5195
rradius 10.5933
rwrist 317.55
rhand -30.3113 -6.21871
rfingers 7.12502
rthumb -3.61809 -36.1677
lclavicle -5.71009e-014 -2.94201e-014
lhumerus -9.85122 14.4701 75.6648
lradius 12.9746
lwrist 37.9387
lhand -22.4394 23.334
lfingers 7.12502
lthumb 3.98449 53.2765
rfemur 12.1712 14.2832 12.7301
rtibia 19.0826
rfoot -27.2008 -20.9518
rtoes -12.5445
lfemur 2.17027 -17.3045 -19.4752
ltibia 33.1826
lfoot -28.1725 6.39015
ltoes -0.148453
8
root 1.32501 16.9992 0.290873 831.673 -92.2132 -843.426
lowerback 14.8075 -3.03267 -1.19985
upperback 5.56359 -4.58832 -3.14964
thorax -2.56922 -2.39817 -1.84433
lowerneck -0.671157 3.35132 -0.596158
upperneck 22.5335 3.90653 -0.317281
head 6.97339 1.47403 0.195337
rclavicle 1.30204e-014 -1.27222e-014
rhumerus -191.314 156.828 97.2311
rradius 12.6204
rwrist 316.435
rhand -30.4406 -6.27348
rfingers 7.12502
rthumb -3.74297 -36.2204
lclavicle 1.30204e-014 -1.27222e-014
lhumerus -8.12056 7.17972 78.9378
lradius 15.1677
lwrist 42.4869
lhand -21.8667 23.1965
lfingers 7.12502
lthumb 4.53751 53.1279
rfemur 11.9312 14.0705 12.5771
rtibia 19.2081
rfoot -26.7256 -20.5489
rtoes -12.599
lfemur 2.15639 -17.045 -19.4109
ltibia 33.277
lfoot -28.1357 6.4666
ltoes -0.107471
9
root 1.36483 16.9998 0.30038 824.653 -92.0429 -836.526
lowerback 15.1151 -2.91604 -1.0006
upperback 5.60148 -4.4201 -3.1499
thorax -2.70334 -2.31506 -1.96927
lowerneck -1.46387 3.27874 -0.610765
upperneck 22.9152 3.83151 -0.304418
head 7.237 1.43454 0.213446
rclavicle 5.12367e-014 -7.95139e-016
rhumerus -189.532 152.659 95.3991
rradius 14.8314
rwrist 314.31
rhand -30.8158 -6.31197
rfingers 7.12502
rthumb -4.10524 -36.2522
lclavicle 5.12367e-014 -7.95139e-016
lhumerus -6.50612 0.285527 81.3812
lradius 17.7653
lwrist 46.4456
lhand -21.3794 22.9999
lfingers 7.12502
lthumb 5.00806 52.9208
rfemur 11.6767 13.8804 12.4064
rtibia 19.3356
rfoot -26.2584 -20.1604
rtoes -12.6589
lfemur 2.132 -16.8027 -19.3734
ltibia 33.3641
lfoot -28.0953 6.56628
ltoes -0.241038
10
root 1.40412 17.0015 0.310878 816.921 -91.8498 -828.892
lowerback 15.3802 -2.80832 -0.703375
upperback 5.61137 -4.24549 -3.14987
thorax -2.84938 -2.22739 -2.15304
lowerneck -1.98299 3.20718 -0.653667
upperneck 23.1857 3.74688 -0.273759
head 7.41652 1.39021 0.235551
rclavicle 1.9133e-014 1.27222e-014
rhumerus -187.5 149.149 94.2208
rradius 17.1214
rwrist 312.617
rhand -31.1586 -6.19021
rfingers 7.12502
rthumb -4.4363 -36.1238
lclavicle 1.9133e-014 1.27222e-014
lhumerus -4.72768 -5.01758 83.1228
lradius 20.1648
lwrist 48.4845
lhand -20.7009 22.4199
lfingers 7.12502
lthumb 5.66315 52.3242
rfemur 11.4043 13.6707 12.3023
rtibia 19.4567
rfoot -25.7642 -19.7997
rtoes -12.7654
lfemur 2.09143 -16.5852 -19.2666
ltibia 33.4584
lfoot -28.0783 6.64573
ltoes -0.246879
11
root 1.44204 17.0027 0.319953 807.9 -91.7503 -819.953
lowerback 15.5765 -2.70527 -0.469715
upperback 5.64356 -4.08379 -3.1532
thorax -2.92973 -2.14735 -2.30822
lowerneck -2.50015 3.14877 -0.768714
upperneck 23.4483 3.67946 -0.202532
head 7.59185 1.35171 0.283859
rclavicle -2.23136e-014 1.35174e-014
rhumerus -185.166 146.746 93.6979
rradius 19.6494
rwrist 311.749
rhand -31.4044 -5.97491
rfingers 7.12502
rthumb -4.67359 -35.9034
lclavicle -2.23136e-014 1.35174e-014
lhumerus -2.65778 -9.41092 84.2636
lradius 22.4141
lwrist 49.3647
lhand -19.9282 21.5078
lfingers 7.12502
lthumb 6.40916 51.3908
rfemur 11.1197 13.5086 12.158
rtibia 19.5838
rfoot -25.3515 -19.4644
rtoes -12.8311
lfemur 2.0328 -16.3872 -19.2195
ltibia 33.5488
lfoot -28.0649 6.76069
ltoes -0.336727
